		<svg
			class="size-5"
			width="33"
			height="33"
			viewBox="0 0 33 33"
			fill="none"
			xmlns="http://www.w3.org/2000/svg"
		>
			<path
				d="M15.8601 4.93397L16.7228 3.46378C17.2554 2.54491 18.443 2.23512 19.375 2.76019C20.3069 3.28526 20.6211 4.45616 20.0886 5.37502L11.7754 19.5623H17.7879C19.7371 19.5623 20.8288 21.8201 19.9821 23.3848H2.35451C1.27875 23.3848 0.416016 22.5342 0.416016 21.4736C0.416016 20.4129 1.27875 19.5623 2.35451 19.5623H7.29662L13.6234 8.7512L11.6476 5.36977C11.115 4.45091 11.4292 3.29051 12.3612 2.75494C13.2932 2.22987 14.4701 2.53966 15.0133 3.45853L15.8601 4.93397ZM8.38303 25.3538L6.51909 28.541C5.98654 29.4598 4.79894 29.7696 3.86697 29.2446C2.935 28.7195 2.62079 27.5486 3.15335 26.6297L4.53799 24.2669C6.1037 23.7891 7.3765 24.1567 8.38303 25.3538ZM24.4342 19.5728H29.4775C30.5533 19.5728 31.416 20.4234 31.416 21.4841C31.416 22.5447 30.5533 23.3953 29.4775 23.3953H26.6763L28.5669 26.6297C29.0994 27.5486 28.7852 28.709 27.8532 29.2446C26.9213 29.7696 25.7443 29.4598 25.2011 28.541C22.0164 23.096 19.6253 19.0215 18.0382 16.3069C16.414 13.5451 17.5749 10.7727 18.7199 9.83284C19.9927 11.9856 21.8939 15.2358 24.4342 19.5728Z"
				fill="white"
			/>
		</svg>