<svg
			class="size-5"
			width="35"
			height="23"
			viewBox="0 0 35 23"
			fill="none"
			xmlns="http://www.w3.org/2000/svg"
		>
			<path
				d="M30.4199 22.0998H11.4199C9.77183 22.0998 8.83107 20.2183 9.81992 18.8998L19.3199 6.23311C20.1199 5.16644 21.7199 5.16644 22.5199 6.23311L27.6699 13.0998L32.0199 18.8998C33.0088 20.2183 32.068 22.0998 30.4199 22.0998Z"
				fill="white"
			/>
			<path
				fill-rule="evenodd"
				clip-rule="evenodd"
				d="M12.9587 12.6837L8.79901 18.4988H2.41995C0.771861 18.4988 -0.168903 16.6173 0.819952 15.2988L6.26995 8.03212C7.06995 6.96545 8.66995 6.96545 9.46995 8.03212L12.595 12.1988L12.9587 12.6837Z"
				fill="white"
			/>
			<path
				d="M13.2702 0.499367L13.989 3.83056L17.3202 4.54937L13.989 5.26818L13.2702 8.59937L12.5513 5.26818L9.22015 4.54937L12.5513 3.83056L13.2702 0.499367Z"
				fill="white"
			/>
		</svg>