<svg
			class="size-5"
			width="32"
			height="21"
			viewBox="0 0 32 21"
			fill="none"
			xmlns="http://www.w3.org/2000/svg"
		>
			<g clip-path="url(#clip0_79_9075)">
				<path
					d="M14.6992 20.4998H28.9823C29.877 20.4998 30.5062 20.3778 30.8701 20.1338C31.234 19.8899 31.416 19.5276 31.416 19.0469C31.416 18.3479 31.1943 17.6087 30.7507 16.8296C30.3072 16.0504 29.6704 15.3204 28.8403 14.6395C28.0101 13.9587 27.0056 13.4052 25.8267 12.9792C24.6478 12.5532 23.3191 12.3402 21.8408 12.3402C20.37 12.3402 19.0452 12.5532 17.8664 12.9792C16.6874 13.4052 15.681 13.9587 14.8471 14.6395C14.0131 15.3204 13.3763 16.0504 12.9366 16.8296C12.4968 17.6087 12.2769 18.3479 12.2769 19.0469C12.2769 19.5276 12.457 19.8899 12.8171 20.1338C13.1773 20.3778 13.8046 20.4998 14.6992 20.4998ZM21.8522 10.385C22.6634 10.385 23.4139 10.172 24.1038 9.74605C24.7938 9.32005 25.3472 8.74295 25.7642 8.01476C26.1811 7.28656 26.3896 6.46734 26.3896 5.55709C26.3896 4.6614 26.1811 3.85857 25.7642 3.14857C25.3472 2.43858 24.7938 1.87969 24.1038 1.4719C23.4139 1.06411 22.6634 0.860214 21.8522 0.860214C21.041 0.860214 20.2904 1.06775 19.6005 1.48282C18.9106 1.8979 18.3553 2.46225 17.9345 3.17589C17.5138 3.88952 17.3034 4.69054 17.3034 5.57894C17.3034 6.4819 17.5119 7.29566 17.9289 8.02022C18.3459 8.74477 18.8993 9.32005 19.5891 9.74605C20.279 10.172 21.0334 10.385 21.8522 10.385ZM2.41748 20.4998H11.0488C10.7531 20.0846 10.6129 19.5858 10.628 19.0033C10.6432 18.4207 10.7835 17.809 11.0488 17.1682C11.3142 16.5274 11.6799 15.9066 12.1462 15.3058C12.6124 14.705 13.1526 14.1753 13.7667 13.7165C13.1298 13.3087 12.4002 12.9719 11.5776 12.7062C10.755 12.4404 9.81305 12.3074 8.75167 12.3074C7.47043 12.3074 6.31617 12.5095 5.2889 12.9137C4.26164 13.3178 3.386 13.8494 2.66198 14.5084C1.93796 15.1675 1.38263 15.8866 0.995986 16.6657C0.609339 17.4449 0.416016 18.2131 0.416016 18.9705C0.416016 19.4584 0.569537 19.8353 0.876581 20.101C1.18362 20.3668 1.69726 20.4998 2.41748 20.4998ZM8.75167 10.6363C9.46431 10.6363 10.1201 10.4506 10.719 10.0792C11.3179 9.70782 11.7994 9.20354 12.1633 8.56636C12.5271 7.92919 12.7091 7.21738 12.7091 6.43092C12.7091 5.64447 12.5271 4.94359 12.1633 4.32825C11.7994 3.71293 11.316 3.22868 10.7133 2.8755C10.1106 2.52232 9.45673 2.34574 8.75167 2.34574C8.05419 2.34574 7.4041 2.52597 6.80138 2.88643C6.19866 3.24688 5.71156 3.7366 5.34008 4.35557C4.9686 4.97453 4.78664 5.6736 4.79423 6.45278C4.79423 7.23195 4.97618 7.9383 5.34008 8.57183C5.70399 9.20537 6.18729 9.70782 6.79 10.0792C7.39272 10.4506 8.04661 10.6363 8.75167 10.6363Z"
					fill="white"
					fill-opacity="0.85"
				/>
			</g>
			<defs>
				<clipPath id="clip0_79_9075">
					<rect width="31" height="20" fill="white" transform="translate(0.416016 0.499756)" />
				</clipPath>
			</defs>
		</svg>