<svg width="164" height="164" viewBox="0 0 164 164" fill="none" xmlns="http://www.w3.org/2000/svg">
<g clip-path="url(#clip0_71_8118)">
<rect x="-0.000976562" y="0.5" width="163.433" height="163.433" rx="81.7167" fill="#252628"/>
<path fill-rule="evenodd" clip-rule="evenodd" d="M83.9478 49.3623C84.0799 50.0458 84.6404 50.5607 85.3284 50.666C85.7711 50.7336 86.2107 50.8104 86.6472 50.896C87.3589 51.0355 88.0878 50.7098 88.4286 50.0695L90.8433 45.533C91.0528 45.1395 91.506 44.9426 91.9365 45.058L91.9951 45.0737C92.4264 45.1893 92.7207 45.5877 92.7042 46.034L92.5022 51.5057C92.4774 52.1771 92.8774 52.7886 93.4911 53.0623C93.7762 53.1894 94.0592 53.3206 94.3398 53.4558C94.9895 53.7686 95.7721 53.6407 96.2641 53.1135L100.036 49.0721C100.34 48.7462 100.829 48.6733 101.215 48.8962L101.268 48.9265C101.654 49.1498 101.836 49.6108 101.704 50.0376L99.9873 55.6134C99.789 56.2573 100.019 56.9533 100.544 57.3758C100.726 57.523 100.908 57.6721 101.087 57.8232C101.633 58.2831 102.414 58.3567 103.02 57.9785L108 54.8696C108.378 54.6336 108.869 54.6896 109.184 55.0048L109.227 55.0477C109.543 55.3635 109.599 55.8556 109.361 56.2339L105.551 62.3047C105.529 62.3404 105.531 62.3862 105.557 62.4192C105.585 62.4536 105.632 62.4659 105.672 62.4494L112.321 59.7554C112.734 59.588 113.208 59.7277 113.464 60.0925L113.499 60.1421C113.756 60.5075 113.726 61.0019 113.427 61.3336L112.26 62.6281C111.2 63.8039 112.314 65.6391 113.846 65.2415L115.643 64.7753C116.088 64.6599 116.553 64.8781 116.75 65.2934C116.946 65.7079 116.822 66.2051 116.452 66.4767L111.006 70.4789C110.655 70.7369 110.52 71.1963 110.667 71.6066C110.809 72.0054 111.186 72.2754 111.61 72.268L118.366 72.1499C118.812 72.1422 119.204 72.4429 119.312 72.8753L119.327 72.9341C119.435 73.3674 119.229 73.818 118.831 74.0201L113.104 76.9274C112.528 77.2198 112.208 77.846 112.286 78.4874C112.363 79.13 112.825 79.6693 113.456 79.8151L119.722 81.2649C120.156 81.3653 120.464 81.7521 120.464 82.1978V82.2585C120.464 82.7051 120.155 83.0924 119.72 83.192L113.57 84.5989C112.888 84.7548 112.392 85.3364 112.313 86.0309C112.298 86.1632 112.282 86.2953 112.266 86.4271C112.18 87.1049 112.508 87.7738 113.111 88.0948L118.683 91.0605C119.076 91.27 119.273 91.7232 119.158 92.1537L119.142 92.2123C119.026 92.6437 118.628 92.9379 118.182 92.9214L112.028 92.6942C111.322 92.6682 110.687 93.1107 110.436 93.7709C110.377 93.927 110.316 94.0825 110.255 94.2373C110.004 94.8675 110.149 95.5918 110.645 96.0547L115.144 100.254C115.47 100.558 115.543 101.047 115.32 101.433L115.289 101.485C115.066 101.872 114.605 102.053 114.178 101.921L108.516 100.178C107.834 99.9681 107.099 100.238 106.689 100.822C106.562 101.002 106.433 101.18 106.303 101.358C105.904 101.901 105.86 102.633 106.217 103.204L109.346 108.217C109.582 108.596 109.526 109.086 109.211 109.402L109.168 109.445C108.852 109.76 108.36 109.816 107.982 109.578L102.377 106.06C102.271 105.994 102.135 106.007 102.043 106.091C101.958 106.169 101.929 106.292 101.973 106.399L104.46 112.538C104.628 112.951 104.488 113.425 104.123 113.681L104.074 113.716C103.708 113.973 103.214 113.943 102.882 113.644L98.0814 109.317C98.0271 109.268 97.9469 109.262 97.8857 109.301C97.8269 109.34 97.7994 109.411 97.8177 109.479L99.38 115.236C99.5003 115.679 99.2872 116.147 98.8742 116.348C98.4619 116.549 97.9634 116.43 97.6876 116.064L94.7655 112.178C94.4159 111.713 93.7894 111.56 93.2562 111.793C92.7846 111.999 92.4772 112.468 92.4949 112.982L92.6819 118.407C92.6972 118.853 92.4032 119.25 91.9727 119.365L91.9141 119.381C91.4827 119.497 91.0287 119.299 90.8198 118.904L88.5728 114.657C88.2316 114.013 87.4975 113.685 86.7823 113.829C86.3194 113.922 85.8528 114.005 85.3829 114.077C84.718 114.18 84.1709 114.666 84.0192 115.322L82.951 119.939C82.8506 120.373 82.4638 120.681 82.0181 120.681H81.9574C81.5108 120.681 81.1235 120.372 81.0239 119.937L80.0463 115.663C79.883 114.95 79.2548 114.443 78.524 114.4C77.8319 114.359 77.1457 114.296 76.4661 114.213C75.7662 114.126 75.0792 114.48 74.772 115.115L73.1667 118.432C72.9665 118.846 72.4992 119.059 72.0553 118.94C71.6121 118.821 71.3139 118.404 71.3464 117.947L71.5881 114.541C71.6416 113.786 71.157 113.102 70.4384 112.867C69.6221 112.599 68.8202 112.3 68.0341 111.97C67.3766 111.694 66.6105 111.855 66.1443 112.395L63.9821 114.897C63.6817 115.245 63.1752 115.33 62.7772 115.1C62.3799 114.871 62.1997 114.391 62.3496 113.957L63.3655 111.016C63.6107 110.307 63.3256 109.526 62.7004 109.11C61.9379 108.603 61.1984 108.064 60.4837 107.496C59.9196 107.047 59.1284 106.999 58.5321 107.404L56.0253 109.106C55.6451 109.364 55.1341 109.315 54.8091 108.99C54.4847 108.665 54.4348 108.155 54.6918 107.775L56.357 105.312C56.7517 104.728 56.687 103.951 56.2245 103.42C55.7742 102.902 55.0399 102.724 54.4145 103.006L51.7085 104.225C51.2896 104.414 50.7946 104.277 50.5305 103.901C50.2668 103.526 50.3055 103.015 50.624 102.685L52.8544 100.373C53.2103 100.004 53.2639 99.4405 52.998 99.0025C52.7479 98.5906 52.2661 98.3749 51.7954 98.4778L48.3218 99.2378C47.8864 99.3331 47.4428 99.1154 47.2519 98.7126L47.2259 98.6579C47.0346 98.2543 47.1476 97.7721 47.4983 97.4956L49.9138 95.5911C50.478 95.1462 50.6715 94.3807 50.4176 93.7085C50.2911 93.3736 50.1701 93.036 50.0546 92.6959C49.8328 92.0426 49.2365 91.5824 48.5469 91.5645L44.9495 91.4715C44.4901 91.4596 44.1037 91.1215 44.0291 90.6681C43.9547 90.2153 44.2115 89.7719 44.6418 89.6128L47.6068 88.5171C48.3318 88.2492 48.7562 87.5008 48.6522 86.7349C48.5647 86.0911 48.4964 85.4412 48.4477 84.7858C48.3925 84.0429 47.8591 83.4149 47.1274 83.275L44.3128 82.737C43.8615 82.6507 43.535 82.2544 43.535 81.7948C43.535 81.336 43.8604 80.9401 44.3109 80.853L47.2395 80.2869C47.9484 80.1498 48.4729 79.5534 48.5516 78.8356C48.6534 77.909 48.7945 76.9943 48.9735 76.0932C49.1197 75.3569 48.7674 74.6041 48.0917 74.2771L45.35 72.9504C44.9364 72.7502 44.7236 72.2829 44.8426 71.839C44.9613 71.3959 45.3781 71.0977 45.8357 71.1301L49.0664 71.3594C49.778 71.4099 50.4329 70.9803 50.7012 70.3192C51.0297 69.5097 51.3904 68.7166 51.7815 67.9416C52.1224 67.2662 51.9797 66.4395 51.4072 65.9449L48.8848 63.766C48.5371 63.4656 48.4525 62.9591 48.6823 62.5611C48.9117 62.1638 49.3915 61.9837 49.8251 62.1335L53.2291 63.3094C53.8963 63.5399 54.6325 63.3022 55.0648 62.7442C55.554 62.1129 56.0662 61.5003 56.6001 60.9078C57.1082 60.344 57.1863 59.5055 56.7599 58.8776L54.6763 55.8091C54.4182 55.4289 54.4676 54.9178 54.7926 54.5929C55.117 54.2685 55.627 54.2186 56.0071 54.4755L59.6186 56.9169C60.0338 57.1976 60.5821 57.1729 60.9803 56.8687C61.4116 56.5392 61.5696 55.9573 61.3466 55.4625L59.5571 51.4923C59.3683 51.0733 59.505 50.5784 59.881 50.3142C60.2565 50.0505 60.7675 50.0892 61.0976 50.4078L64.7603 53.9415C64.9325 54.1077 65.1923 54.1422 65.4036 54.0299C65.6245 53.9125 65.7413 53.6621 65.6851 53.4183L64.6047 48.7303C64.5046 48.296 64.7174 47.85 65.118 47.6546L65.1724 47.628C65.5738 47.4322 66.0573 47.5399 66.3377 47.8875L69.1394 51.3609C69.5059 51.8152 70.1164 51.9869 70.6725 51.8093C71.2961 51.6103 71.7175 51.0167 71.6698 50.3638L71.3239 45.6276C71.2904 45.1692 71.5887 44.7513 72.0326 44.6324C72.4758 44.5137 72.9424 44.7255 73.1431 45.1381L75.3033 49.5786C75.607 50.203 76.2791 50.5553 76.9694 50.4811C77.4973 50.4243 78.029 50.3804 78.5642 50.3495C79.3183 50.3061 79.961 49.7695 80.1028 49.0276L81.0455 44.0966C81.1318 43.6452 81.5281 43.3188 81.9876 43.3188C82.4464 43.3188 82.8423 43.6442 82.9294 44.0946L83.9478 49.3623ZM55.1228 77.8098C55.1945 77.4096 55.488 77.0734 55.6058 76.6842C55.6088 76.6742 55.6117 76.664 55.6145 76.6538L56.5841 73.035C56.6457 72.8053 56.6572 72.5595 56.7501 72.3405C60.6603 63.122 69.7944 56.6559 80.4387 56.6559C94.6435 56.6559 106.159 68.1711 106.159 82.3759C106.159 96.5806 94.6435 108.096 80.4387 108.096C76.9304 108.096 73.5861 107.393 70.5388 106.121C70.425 106.074 70.3227 106.003 70.2159 105.941L66.9714 104.068C66.9621 104.063 66.9527 104.057 66.9433 104.052C66.6326 103.886 66.2577 103.839 65.9667 103.641C65.703 103.461 65.4428 103.277 65.1863 103.087C64.8368 102.83 64.6718 102.375 64.3648 102.068L61.7157 99.4192C61.5092 99.2128 61.3031 98.9678 61.1352 98.7289L58.9818 95.6632C58.6471 95.1866 57.9861 94.9446 57.7127 94.4304C56.778 92.6719 56.0415 90.792 55.5328 88.8205L55.2199 86.9183C55.2164 86.8969 55.2122 86.8758 55.2074 86.855C55.1503 86.6099 55.0273 86.3798 54.9909 86.1308C54.9508 85.8569 54.9151 85.5816 54.8837 85.305C54.8218 84.7593 55.1803 84.217 55.186 83.6677C55.186 83.6643 55.186 83.6609 55.186 83.6575V79.9111C55.186 79.4385 54.9389 78.9625 55.0096 78.4952C55.0443 78.2658 55.0821 78.0373 55.1228 77.8098Z" fill="url(#paint0_linear_71_8118)"/>
<path fill-rule="evenodd" clip-rule="evenodd" d="M92.6742 31.747C92.5042 32.1251 92.0947 32.3333 91.6877 32.254C91.2817 32.1748 90.9793 31.8292 90.9626 31.4159L90.5163 20.4112C90.4978 19.9548 90.1515 19.5791 89.6982 19.5234C89.2442 19.4677 88.8169 19.7495 88.6892 20.1886L85.4962 31.1692C85.4522 31.3206 85.3086 31.4208 85.1512 31.4106C84.9948 31.4006 84.8655 31.2843 84.8402 31.1296L82.9875 19.8398C82.9136 19.3892 82.5241 19.0584 82.0674 19.0584C81.61 19.0584 81.2202 19.3901 81.147 19.8415L79.3428 30.96C79.3046 31.1953 79.1067 31.3715 78.8688 31.3848C78.6341 31.398 78.4205 31.2492 78.3533 31.0239L75.1324 20.2244C75.0019 19.7868 74.5736 19.508 74.1206 19.566C73.6669 19.624 73.3223 20.0025 73.3069 20.4595L72.9396 31.366C72.9258 31.7745 72.6266 32.1168 72.2249 32.1925C71.8286 32.2671 71.4314 32.0634 71.266 31.6956L66.9688 22.1416C66.7812 21.7245 66.3188 21.505 65.8771 21.6234C65.4359 21.7416 65.1453 22.1619 65.1905 22.6164L66.2513 33.2794C66.2747 33.5145 66.1298 33.7337 65.905 33.8068C65.6842 33.8785 65.4426 33.7907 65.3211 33.5929L59.4895 24.1046C59.2503 23.7155 58.7646 23.5569 58.3419 23.7298C57.9186 23.903 57.6835 24.3577 57.7866 24.8032L60.1911 35.1855C60.2965 35.6408 60.0666 36.1067 59.645 36.3084C59.2301 36.5069 58.7322 36.4001 58.4414 36.0437L51.956 28.0966C51.6668 27.7423 51.1634 27.65 50.7673 27.8786C50.3718 28.107 50.1999 28.5882 50.3612 29.0155L54.0463 38.7776C54.162 39.0843 54.0464 39.4298 53.7718 39.6088C53.501 39.7853 53.1441 39.7551 52.9096 39.5326L45.3442 32.3545C45.0124 32.0397 44.5013 32.012 44.1375 32.2891C43.7741 32.5658 43.6646 33.0649 43.8788 33.4683L48.727 42.5984C48.8889 42.9032 48.8141 43.2793 48.551 43.5026C48.294 43.7209 47.9211 43.7385 47.6472 43.5418L38.978 37.3167C38.607 37.0503 38.0977 37.0918 37.7747 37.4148C37.4513 37.7382 37.4102 38.2483 37.6776 38.6194L43.7772 47.0819C44.02 47.4188 43.9904 47.8798 43.7115 48.1874C43.439 48.488 42.9965 48.5669 42.64 48.3731L33.7329 43.5315C33.3311 43.3131 32.8302 43.4184 32.5503 43.78C32.2707 44.1412 32.2939 44.6516 32.605 44.986L39.5179 52.4155C39.7633 52.6792 39.7887 53.0788 39.583 53.3744C39.3827 53.6622 39.0131 53.7799 38.6851 53.6561L28.9587 49.9845C28.5314 49.8232 28.0502 49.9951 27.8219 50.3906C27.5932 50.7867 27.6855 51.2901 28.0398 51.5793L35.8992 57.9931C36.2291 58.2623 36.3214 58.7268 36.1257 59.105C35.935 59.4735 35.5181 59.6678 35.1149 59.5697L25.4505 57.2192C25.0061 57.1112 24.5489 57.3413 24.3711 57.7627C24.1934 58.1834 24.3467 58.6709 24.7332 58.9143L33.0935 64.1801C33.4437 64.4007 33.5897 64.8365 33.449 65.2258C33.312 65.6049 32.9364 65.8463 32.5352 65.8064L22.5594 64.814C22.105 64.7688 21.6846 65.0594 21.5664 65.5006C21.4481 65.9423 21.6675 66.4047 22.0846 66.5923L31.1523 70.6707C31.5018 70.8279 31.6904 71.2098 31.608 71.584C31.5281 71.9466 31.2133 72.2113 30.8422 72.2217L20.8979 72.5007C20.4414 72.5135 20.0613 72.8551 20 73.3077C19.9387 73.7609 20.215 74.1917 20.6526 74.3249L29.624 77.0556C30.2349 77.2415 30.6268 77.8316 30.575 78.4681C30.5244 79.0903 30.0614 79.6065 29.4452 79.7065L20.2182 81.2037C19.7667 81.277 19.4351 81.6668 19.4351 82.1242C19.4351 82.5809 19.7658 82.9704 20.2165 83.0443L29.967 84.6443C30.244 84.6898 30.4504 84.9244 30.4639 85.2048C30.4771 85.4783 30.303 85.7262 30.0405 85.8043L20.5972 88.615C20.1594 88.7453 19.8805 89.1735 19.9382 89.6265C19.9959 90.0802 20.3742 90.425 20.8313 90.4406L29.8792 90.7504C30.5518 90.7734 31.1118 91.2726 31.232 91.9347C31.3494 92.5813 31.0187 93.2281 30.4194 93.4976L22.0846 97.2464C21.6675 97.434 21.4481 97.8964 21.5664 98.3381C21.6846 98.7793 22.105 99.0699 22.5594 99.0247L32.2553 98.0601C32.529 98.0329 32.7839 98.2021 32.8682 98.4639C32.9508 98.7206 32.8484 99.0009 32.6183 99.1416L24.4252 104.149C24.0355 104.387 23.8757 104.873 24.0476 105.296C24.2198 105.719 24.6738 105.956 25.1196 105.854L33.6352 103.904C34.3385 103.743 35.0558 104.104 35.3659 104.755C35.6707 105.396 35.5089 106.164 34.9594 106.612L28.0398 112.259C27.6855 112.548 27.5932 113.052 27.8219 113.448C28.0502 113.843 28.5314 114.015 28.9587 113.854L37.7189 110.547C38.1313 110.392 38.5957 110.547 38.8381 110.915C39.0788 111.281 39.04 111.765 38.7387 112.083L32.2977 118.871C31.983 119.203 31.9552 119.714 32.2323 120.078C32.509 120.441 33.0081 120.551 33.4115 120.336L41.4773 116.053C41.9693 115.792 42.5761 115.912 42.941 116.333C43.3039 116.752 43.3381 117.366 43.014 117.815L37.6776 125.219C37.4102 125.59 37.4513 126.1 37.7747 126.424C38.0977 126.747 38.607 126.788 38.9779 126.522L46.5378 121.093C46.8947 120.837 47.3816 120.866 47.7103 121.158C48.0377 121.448 48.1258 121.926 47.9169 122.31L43.4748 130.482C43.2564 130.884 43.3616 131.385 43.7232 131.665C44.0844 131.945 44.5949 131.921 44.9292 131.61L51.5626 125.438C51.9806 125.049 52.6126 125.007 53.0859 125.326C53.558 125.645 53.7562 126.245 53.5541 126.778L50.3413 135.243C50.179 135.671 50.3508 136.153 50.7468 136.382C51.1423 136.61 51.6451 136.518 51.9344 136.165L57.8481 128.945C58.1046 128.631 58.5445 128.541 58.9068 128.721C59.2692 128.902 59.4622 129.308 59.3666 129.701L57.1623 138.765C57.0542 139.209 57.2844 139.666 57.7057 139.844C58.1265 140.022 58.614 139.868 58.8574 139.482L63.647 131.878C63.9708 131.364 64.6079 131.146 65.183 131.343C65.7604 131.54 66.1342 132.106 66.0728 132.713L65.1678 141.648C65.1217 142.103 65.4125 142.524 65.8542 142.643C66.2954 142.761 66.7572 142.542 66.9453 142.126L70.6361 133.959C70.8973 133.381 71.5235 133.064 72.1465 133.183C72.7748 133.302 73.2468 133.834 73.2716 134.473L73.6186 143.423C73.6363 143.88 73.9828 144.257 74.4367 144.312C74.8901 144.368 75.3169 144.087 75.4452 143.649L78.1037 134.567C78.2059 134.217 78.5364 133.987 78.8997 134.007C79.2667 134.027 79.5732 134.298 79.6321 134.661L81.147 143.997C81.2202 144.448 81.61 144.78 82.0674 144.78C82.5241 144.78 82.9136 144.449 82.9875 143.999L84.5057 134.747C84.5763 134.317 84.9378 133.995 85.3728 133.965C85.812 133.934 86.215 134.21 86.3401 134.632L89.002 143.616C89.1319 144.054 89.5607 144.334 90.0143 144.276C90.4673 144.218 90.8117 143.84 90.8279 143.384L91.1518 134.25C91.1729 133.655 91.6067 133.155 92.1901 133.035C92.7812 132.914 93.3805 133.212 93.6291 133.762L97.213 141.692C97.4011 142.109 97.8629 142.327 98.3041 142.209C98.7458 142.091 99.0365 141.669 98.9904 141.214L98.0735 132.16C98.0331 131.762 98.2753 131.39 98.6534 131.259C99.037 131.125 99.4627 131.274 99.6747 131.62L104.646 139.741C104.885 140.132 105.371 140.291 105.794 140.118C106.217 139.945 106.452 139.491 106.35 139.046L104.285 130.056C104.147 129.457 104.444 128.844 104.992 128.567C105.551 128.283 106.235 128.419 106.632 128.904L112.224 135.731C112.513 136.085 113.016 136.176 113.411 135.948C113.808 135.719 113.979 135.237 113.817 134.81L110.549 126.198C110.389 125.778 110.542 125.304 110.912 125.049C111.292 124.788 111.802 124.823 112.137 125.139L118.834 131.471C119.166 131.785 119.676 131.812 120.04 131.535C120.404 131.258 120.513 130.758 120.298 130.354L115.904 122.115C115.696 121.726 115.785 121.245 116.114 120.951C116.449 120.649 116.95 120.618 117.316 120.882L125.162 126.538C125.533 126.805 126.044 126.764 126.367 126.44C126.69 126.118 126.731 125.608 126.465 125.237L120.818 117.373C120.534 116.978 120.562 116.439 120.878 116.069C121.202 115.69 121.747 115.583 122.185 115.82L130.441 120.289C130.843 120.506 131.343 120.401 131.623 120.04C131.903 119.678 131.879 119.167 131.567 118.832L124.981 111.78C124.707 111.486 124.671 111.043 124.891 110.706C125.115 110.361 125.548 110.216 125.932 110.362L135.186 113.874C135.614 114.036 136.096 113.864 136.325 113.468C136.553 113.073 136.461 112.57 136.108 112.281L128.438 105.999C128.096 105.719 127.994 105.24 128.184 104.842C128.38 104.433 128.833 104.212 129.273 104.319L138.719 106.598C139.163 106.705 139.619 106.475 139.796 106.054C139.974 105.633 139.82 105.145 139.433 104.902L131.029 99.6294C130.694 99.4188 130.547 99.0057 130.67 98.629C130.796 98.2425 131.173 97.9922 131.577 98.0332L141.591 99.0474C142.046 99.0935 142.467 98.8028 142.586 98.361C142.704 97.9199 142.485 97.458 142.069 97.27L132.724 93.0469C132.413 92.9064 132.241 92.5709 132.304 92.2358C132.368 91.8934 132.662 91.6395 133.01 91.6303L143.256 91.3612C143.713 91.3492 144.094 91.0074 144.155 90.5542C144.216 90.1016 143.941 89.6712 143.504 89.5375L133.983 86.6208C133.443 86.4555 133.09 85.9416 133.119 85.3779C133.149 84.7994 133.573 84.3124 134.145 84.2186L143.942 82.6109C144.393 82.5369 144.723 82.1474 144.723 81.6907C144.723 81.2334 144.392 80.8435 143.94 80.7703L133.368 79.0547C133.186 79.0252 133.048 78.8743 133.034 78.6905C133.02 78.5027 133.138 78.33 133.319 78.2766L143.563 75.2474C144.001 75.1177 144.281 74.6891 144.223 74.2354C144.166 73.7824 143.788 73.4378 143.332 73.4213L133.214 73.0569C132.667 73.0372 132.208 72.6403 132.096 72.1046C131.981 71.5583 132.256 71.0032 132.765 70.7733L142.069 66.5686C142.485 66.3805 142.704 65.9187 142.586 65.4775C142.467 65.0358 142.046 64.7451 141.591 64.7911L130.52 65.9124C130.444 65.9201 130.372 65.8745 130.347 65.8021C130.285 65.6236 130.355 65.4256 130.517 65.3274L139.741 59.7123C140.131 59.4745 140.292 58.9885 140.12 58.5648C139.948 58.1417 139.495 57.9054 139.049 58.0065L129.072 60.2723C128.534 60.3945 127.984 60.1272 127.736 59.6343C127.484 59.1323 127.607 58.5208 128.041 58.1648L136.108 51.5579C136.461 51.2685 136.553 50.7658 136.325 50.3703C136.096 49.9742 135.614 49.8025 135.186 49.9647L124.874 53.8784C124.632 53.9703 124.359 53.8831 124.213 53.6695C124.063 53.4515 124.084 53.1584 124.266 52.9663L131.847 44.9474C132.161 44.6155 132.188 44.1052 131.912 43.7419C131.635 43.378 131.135 43.2688 130.731 43.484L121.071 48.6355C120.757 48.8034 120.368 48.7315 120.131 48.4655C119.889 48.1951 119.865 47.793 120.076 47.4985L126.465 38.6013C126.731 38.2303 126.69 37.721 126.367 37.398C126.043 37.0747 125.533 37.0335 125.162 37.3009L116.053 43.8669C115.864 44.0027 115.607 43.99 115.432 43.8379C115.254 43.684 115.206 43.4274 115.318 43.2208L120.666 33.3404C120.883 32.9388 120.777 32.4388 120.416 32.1592C120.055 31.8793 119.543 31.9029 119.209 32.215L111.119 39.77C110.861 40.0102 110.472 40.0397 110.179 39.8451C109.884 39.6491 109.76 39.2756 109.886 38.944L113.797 28.582C113.958 28.1547 113.787 27.6735 113.391 27.4452C112.995 27.2165 112.491 27.3088 112.202 27.6632L105.007 36.4801C104.889 36.6253 104.685 36.6687 104.517 36.5857C104.349 36.5025 104.26 36.3138 104.304 36.1311L106.975 25.063C107.082 24.619 106.852 24.1628 106.431 23.9852C106.009 23.8073 105.521 23.9613 105.278 24.3487L99.4022 33.7147C99.198 34.0402 98.7957 34.1796 98.432 34.0552C98.0683 33.9308 97.8346 33.5738 97.8726 33.1912L98.9677 22.1829C99.0129 21.7284 98.7223 21.3081 98.2812 21.1899C97.8394 21.0715 97.377 21.291 97.1894 21.7081L92.6742 31.747ZM81.7958 127.452C78.1473 127.452 74.6008 127.015 71.2056 126.191C66.9765 125.165 65.4106 120.285 67.5865 116.516L80.5372 94.0851C81.6323 92.1884 80.9824 89.763 79.0856 88.6679C77.1889 87.5728 74.7635 88.2227 73.6684 90.1194L60.5547 112.833C58.4185 116.533 53.5359 117.664 50.4834 114.675C42.1872 106.55 37.0392 95.2239 37.0392 82.695C37.0392 70.5665 41.8635 59.5647 49.6978 51.504C52.6551 48.4612 57.5304 49.4311 59.785 53.0257L74.2914 76.1541C75.4551 78.0095 77.9027 78.5702 79.7581 77.4065C81.6135 76.2428 82.1742 73.7952 81.0105 71.9398L66.8043 49.29C64.4767 45.5789 65.9002 40.6127 70.1302 39.4738C73.8495 38.4724 77.7603 37.9383 81.7958 37.9383C102.403 37.9383 119.758 51.8657 124.96 70.8213C126.101 74.9773 122.668 78.7049 118.358 78.7049H92.17C89.9664 78.7049 88.18 80.4914 88.18 82.695C88.18 84.8987 89.9664 86.6851 92.17 86.6851H118.358C122.668 86.6851 126.101 90.4127 124.96 94.5688C119.758 113.524 102.403 127.452 81.7958 127.452Z" fill="url(#paint1_linear_71_8118)"/>
<path d="M92.2138 82.4998C92.2138 88.1412 87.6406 92.7144 81.9993 92.7144C76.3579 92.7144 71.7847 88.1412 71.7847 82.4998C71.7847 76.8584 76.3579 72.2852 81.9993 72.2852C87.6406 72.2852 92.2138 76.8584 92.2138 82.4998ZM77.1743 82.4998C77.1743 85.1646 79.3345 87.3248 81.9993 87.3248C84.664 87.3248 86.8242 85.1646 86.8242 82.4998C86.8242 79.835 84.664 77.6748 81.9993 77.6748C79.3345 77.6748 77.1743 79.835 77.1743 82.4998Z" fill="#CACCCB"/>
<g filter="url(#filter0_f_71_8118)">
<circle cx="81.999" cy="82.4999" r="80.9187" transform="rotate(-14.4897 81.999 82.4999)" stroke="url(#paint2_linear_71_8118)" stroke-width="1.59603"/>
<circle cx="81.999" cy="82.4999" r="80.9187" transform="rotate(-14.4897 81.999 82.4999)" stroke="url(#paint3_linear_71_8118)" stroke-opacity="0.6" stroke-width="1.59603"/>
</g>
</g>
<defs>
<filter id="filter0_f_71_8118" x="-1.33358" y="-0.832602" width="166.665" height="166.665" filterUnits="userSpaceOnUse" color-interpolation-filters="sRGB">
<feFlood flood-opacity="0" result="BackgroundImageFix"/>
<feBlend mode="normal" in="SourceGraphic" in2="BackgroundImageFix" result="shape"/>
<feGaussianBlur stdDeviation="0.798015" result="effect1_foregroundBlur_71_8118"/>
</filter>
<linearGradient id="paint0_linear_71_8118" x1="68.9119" y1="43.3188" x2="82.143" y2="120.656" gradientUnits="userSpaceOnUse">
<stop stop-color="#CDCDCD"/>
<stop offset="1" stop-color="#A3A3A3"/>
</linearGradient>
<linearGradient id="paint1_linear_71_8118" x1="49.9192" y1="26.5056" x2="119.703" y2="144.569" gradientUnits="userSpaceOnUse">
<stop offset="0.199056" stop-color="#EEEEEE"/>
<stop offset="1" stop-color="#909196"/>
</linearGradient>
<linearGradient id="paint2_linear_71_8118" x1="44.7317" y1="12.6737" x2="67.7145" y2="51.0582" gradientUnits="userSpaceOnUse">
<stop stop-color="#A8A8A8"/>
<stop offset="1" stop-color="#161918" stop-opacity="0"/>
</linearGradient>
<linearGradient id="paint3_linear_71_8118" x1="53.9089" y1="4.93291" x2="57.5797" y2="11.1574" gradientUnits="userSpaceOnUse">
<stop stop-color="white"/>
<stop offset="1" stop-color="white" stop-opacity="0"/>
</linearGradient>
<clipPath id="clip0_71_8118">
<rect x="-0.000976562" y="0.5" width="163.433" height="163.433" rx="81.7167" fill="white"/>
</clipPath>
</defs>
</svg>
